<svg version="1.2" xmlns="http://www.w3.org/2000/svg" viewBox="0 0 1024 720">
                  <g id="Layer 1">
                    <g >
                      <path class="s0" d="m82.3 699l5.4-20.6h2.9l-6.1 23.5h-4.3l-4.9-21-4.8 21h-4.3l-6.2-23.5h3l5.4 20.6 4.8-20.6h4.3z"></path>
                      <path class="s0" d="m114.7 678.4h13.9v2.7h-10.8v7.4h10v2.7h-10v8h10.8v2.7h-13.9z"></path>
                      <path class="s0" d="m185.4 701.9h-3v-23.5h3z"></path>
                      <path class="s0" d="m214.9 681.9v20h-2.9v-23.5h4.2l10.2 20.1v-20.1h2.9v23.5h-4.2z"></path>
                      <path class="s0" d="m253.3 678.4h2.9l6.9 20.8 6.9-20.8h2.9l-7.7 23.5h-4.1z"></path>
                      <path class="s0" d="m297 678.4h13.8v2.7h-10.8v7.4h10v2.7h-10v8h10.8v2.7h-13.8z"></path>
                      <path class="s0" d="m342.5 702.2c-2.2 0-5-0.4-7-1.2l0.5-2.5c2.2 0.7 4.4 1.1 6.6 1.1 3.8 0 4.5-1 4.5-3.7 0-3.2 0-3.5-4.8-4.6-5.7-1.2-6.4-2.3-6.4-7.2 0-4.1 1.7-6.1 7.5-6.1 2.1 0 4.5 0.3 6.4 0.8l-0.3 2.6c-1.8-0.4-4.1-0.7-6-0.7-3.8 0-4.5 0.8-4.5 3.5 0 3.3 0 3.4 4.6 4.6 6.2 1.5 6.6 2.4 6.6 7 0 4.1-1.2 6.4-7.7 6.4z"></path>
                      <path class="s0" d="m380.6 681.1h-7v-2.7h17v2.7h-7v20.8h-3z"></path>
                      <path class="s0" d="m442.8 701.9v-23.5h13.9v2.7h-10.9v7.8h10.2v2.8h-10.2v10.2z"></path>
                      <path fill-rule="evenodd" class="s0" d="m497.8 695.1c0 3.9-2.4 7.1-8.5 7.1-6 0-8.5-3.2-8.5-7.1v-9.9c0-4 2.5-7.2 8.5-7.2 6.1 0 8.5 3.2 8.5 7.2zm-13.9-0.1c0 2.9 1.7 4.5 5.4 4.5 3.7 0 5.5-1.6 5.5-4.5v-9.8c0-2.9-1.8-4.5-5.5-4.5-3.7 0-5.4 1.6-5.4 4.5z"></path>
                      <path fill-rule="evenodd" class="s0" d="m532.5 693.4h-5.8v8.5h-3v-23.5h9c5 0 6.8 2.2 6.8 5.8v3.4c0 2.8-1 4.7-3.8 5.4l6.1 8.9h-3.4zm0-12.3h-5.8v9.6h5.8c2.9 0 3.9-0.8 3.9-3.1v-3.4c0-2.3-1-3.1-3.9-3.1z"></path>
                      <path class="s0" d="m599.1 681.1h-7v-2.7h17.1v2.7h-7v20.8h-3.1z"></path>
                      <path class="s0" d="m646.7 701.9v-10.7h-10.4v10.7h-3v-23.5h3v10.1h10.4v-10.1h3.1v23.5z"></path>
                      <path class="s0" d="m676.2 678.4h13.8v2.7h-10.8v7.4h10v2.7h-10v8h10.8v2.7h-13.8z"></path>
                      <path class="s0" d="m743.6 701.9v-23.5h14v2.7h-10.9v7.8h10.2v2.8h-10.2v10.2z"></path>
                      <path class="s0" d="m798.9 678.4v16.9c0 3.8-2.2 6.9-8.3 6.9-6.1 0-8.4-3.1-8.4-6.9v-16.9h3.1v16.7c0 2.9 1.6 4.4 5.3 4.4 3.7 0 5.3-1.5 5.3-4.4v-16.7z"></path>
                      <path class="s0" d="m829.8 681.1h-7v-2.7h17.1v2.7h-7v20.8h-3.1z"></path>
                      <path class="s0" d="m880.5 678.4v16.9c0 3.8-2.3 6.9-8.4 6.9-6.1 0-8.3-3.1-8.3-6.9v-16.9h3v16.7c0 2.9 1.6 4.4 5.3 4.4 3.7 0 5.3-1.5 5.3-4.4v-16.7z"></path>
                      <path fill-rule="evenodd" class="s0" d="m915.5 693.4h-5.8v8.5h-3v-23.5h9c5 0 6.8 2.2 6.8 5.8v3.4c0 2.8-1.1 4.7-3.8 5.4l6.1 8.9h-3.5zm0.1-12.3h-5.8v9.6h5.8c2.9 0 3.9-0.8 3.9-3.1v-3.4c0-2.3-1-3.1-3.9-3.1z"></path>
                      <path class="s0" d="m949.4 678.4h13.8v2.7h-10.8v7.4h10v2.7h-10v8h10.9v2.7h-13.9z"></path>
                      <path fill-rule="evenodd" class="s0" d="m562.9 161.4h-102.5v102.5h102.5c34 0 61.5 27.5 61.5 61.5h-164v82h-61.5v-307.5h225.5c0 33.9-27.5 61.5-61.5 61.5zm-141.2-38.8v262h15.9v-82h156.6c-7.1-9.7-18.5-16-31.3-16h-125.3v-148h125.3c12.8 0 24.2-6.3 31.3-16z"></path>
                      <path fill-rule="evenodd" class="s0" d="m706.4 99.9c0 30.5-9.5 58.7-25.7 82-8.2 11.6-17.9 22-29 30.7 11.1 8.8 20.8 19.1 29 30.8 16.2 23.2 25.7 51.5 25.7 82v82h-225.5v-61.5h164v-20.5c0-45.3-36.7-82-82-82h-82v-61.5h82c45.3 0 82-36.8 82-82v-20.5h-266.5v328h-61.5v-389.5h389.5zm-366.7-59.3v344h15.9v-328h312.1v43.3c0 57.7-47 104.7-104.8 104.7h-59.2v16h59.2c57.8 0 104.8 47 104.8 104.8v43.2h-164v16h179.9v-59.2c0-24.9-7.5-48.7-21.6-69-6.9-9.8-15.1-18.5-24.4-25.9l-22.8-17.9 22.8-17.9c9.3-7.4 17.5-16.1 24.4-25.9 14.1-20.2 21.6-44.1 21.6-68.9v-59.3z"></path>
                      <path class="s0" d="m53 594h-25.2v8.5h13.6v5.9h-13.6v12.3h-7.5v-32.4h32.7z"></path>
                      <path class="s0" d="m137.8 613q0 4.6-1.7 6.1-1.8 1.6-6.3 1.6h-20.5q-4.6 0-6.3-1.6-1.7-1.5-1.7-6.1v-24.7h7.5v26.3h21.5v-26.3h7.5z"></path>
                      <path class="s0" d="m231.3 620.7h-5.2l-23.8-20q-1.5-1.3-2.7-2.6 0.4 3.1 0.4 4.9v17.7h-6.8v-32.4h5.1l22.8 19.1q2.5 2.1 3.7 3.5-0.3-4.5-0.3-5.6v-17h6.8z"></path>
                      <path fill-rule="evenodd" class="s0" d="m326 604.3q0 9.4-7.2 13.9-4 2.5-13.2 2.5h-18.9v-32.4h20.8q8.4 0 13.2 3.8 5.3 4.1 5.3 12.2zm-7.8-0.1q0-10.1-10.6-10.1h-13.4v20.5h9.7q6.9 0 10.1-1.7 4.2-2.4 4.2-8.7z"></path>
                      <path class="s0" d="m386.2 620.7h-7.5v-32.4h7.5z"></path>
                      <path class="s0" d="m479.7 620.7h-5.1l-23.8-20q-1.5-1.3-2.7-2.6 0.3 3.1 0.3 4.9v17.7h-6.8v-32.4h5.2l22.7 19.1q2.5 2.1 3.7 3.5-0.3-4.5-0.3-5.6v-17h6.8z"></path>
                      <path class="s0" d="m572.8 613q0 4.6-1.7 6.1-1.7 1.6-6.3 1.6h-22.4q-4.5 0-6.3-1.6-1.7-1.5-1.7-6.1v-17q0-4.5 1.7-6.1 1.8-1.6 6.3-1.6h22.4q4.8 0 6.4 1.7 1.6 1.7 1.6 6.4l-7.3 1.3v-3.6h-23.6v20.5h23.6v-7.2h-12.3v-5.5h19.6z"></path>
                      <path class="s0" d="m634.5 619.8l-6.2 9.2h-3.7l5.4-9.5h-3.6q-1.5 0-1.5-2.3v-3.9q0-1.6 0.4-2 0.3-0.3 1.8-0.3h5.9q1.5 0 1.5 2.3z"></path>
                      <path class="s0" d="m758 620.7h-7.5v-32.4h7.5z"></path>
                      <path class="s0" d="m851.5 620.7h-5.2l-23.7-20q-1.5-1.3-2.7-2.6 0.3 3.1 0.3 4.9v17.7h-6.8v-32.4h5.2l22.7 19.1q2.5 2.1 3.7 3.5-0.3-4.5-0.3-5.6v-17h6.8z"></path>
                      <path class="s0" d="m941.6 613q0 4.6-1.7 6.1-1.8 1.6-6.3 1.6h-19.4q-4.6 0-6.3-1.6-1.7-1.5-1.7-6.1v-17q0-4.5 1.7-6.1 1.7-1.6 6.3-1.6h19.4q5.7 0 7.1 2.7 0.9 1.6 0.9 8.1l-7.5 1.1v-6.1h-20.4v20.5h20.4v-7l7.5 1.6z"></path>
                      <path class="s0" d="m1003 618.4q0 1.5-0.4 1.9-0.4 0.4-1.9 0.4h-5.9q-1.5 0-1.5-2.3v-5.1q0-1.5 0.3-1.9 0.4-0.4 2-0.4h5.9q1.5 0 1.5 2.3z"></path>
                      <path fill-rule="evenodd" class="s0" d="m95.4 534v8.8q0 13.5-20.3 13.5h-54.8v-69h59q15.5 0 15.5 13.4v8.4q0 10.2-11.9 11.6 12.5 1.6 12.5 13.3zm-59.4-19h36.6q7.4 0 7.4-4.9v-6.6q0-4.9-7.4-4.9h-36.6zm44.4 17.5q0-3.9-1.8-5-1.8-1.2-6-1.2h-36.6v17.5h36.6q4.2 0 6-1.1 1.8-1.1 1.8-5z"></path>
                      <path class="s0" d="m139.7 543.3h51.7v13h-67.7v-69h16z"></path>
                      <path fill-rule="evenodd" class="s0" d="m297.6 490.7q3.6 3.3 3.6 12.9v36.4q0 9.6-3.6 12.9-3.7 3.4-13.5 3.4h-50.7q-9.8 0-13.5-3.4-3.6-3.3-3.6-12.9v-36.4q0-9.6 3.6-12.9 3.7-3.3 13.5-3.4h50.7q9.8 0.1 13.5 3.4zm-12.4 8.9h-52.9v43.7h52.9z"></path>
                      <path class="s0" d="m392.9 512.7v-13.1h-43.3v43.7h43.3v-14.8l16 3.3v8.2q0 9.6-3.7 12.9-3.6 3.4-13.4 3.4h-41.1q-9.8 0-13.5-3.4-3.6-3.3-3.6-12.9v-36.4q0-9.6 3.6-12.9 3.7-3.3 13.5-3.4h41.1q12.3 0 15.2 5.8 1.9 3.3 1.9 17.1z"></path>
                      <path class="s0" d="m471.3 519.8l51.3 36.5h-25.8l-41.3-30.3v30.3h-16.1v-69h16.1v28.8l38.2-28.8h23.3z"></path>
                      <path class="s0" d="m601 512.7v-13.1h-43.3v43.7h43.3v-14.8l16 3.3v8.2q0 9.6-3.6 12.9-3.7 3.4-13.5 3.4h-41.1q-9.8 0-13.4-3.4-3.7-3.3-3.7-12.9v-36.4q0-9.6 3.7-12.9 3.6-3.3 13.4-3.4h41.1q12.3 0 15.3 5.8 1.8 3.3 1.8 17.1z"></path>
                      <path class="s0" d="m713.6 487.3h16.2v69h-16.2v-29.7h-50.1v29.7h-16v-69h16v26.8h50.1z"></path>
                      <path class="s0" d="m809 487.3l39.6 69h-18.1-48.3l7.4-14.1h33.2l-0.5-1-6.7-12.4-14.9-28.1-15.3 28.1-6.8 12.4-8.1 15.1h-16l39-69z"></path>
                      <path class="s0" d="m873.4 487.3h16v69h-16z"></path>
                      <path class="s0" d="m1003 487.3v69h-11l-50.6-42.6q-3.2-2.7-5.7-5.6 0.6 6.6 0.6 10.5v37.7h-14.4v-69h11l48.4 40.7q5.3 4.4 7.9 7.4-0.6-9.6-0.6-11.8v-36.3z"></path>
                      <path class="s0" d="m20.3 647.8v-3h982.7v3z"></path>
                    </g>
                  </g>
                </svg>