<svg id="NeXus_logo_hover" data-name="NeXus logo hover" xmlns="http://www.w3.org/2000/svg" xmlns:xlink="http://www.w3.org/1999/xlink" width="119.727" height="41.729" viewBox="0 0 119.727 41.729">
                  <defs>
                    <clipPath id="clip-path">
                      <rect id="Rectangle_21" data-name="Rectangle 21" width="119.727" height="41.729"></rect>
                    </clipPath>
                  </defs>
                  <path id="Path_1082" data-name="Path 1082" d="M15.766,27.035V47.286L2.415,27.035H0V51.149H2.415V30.864L15.766,51.149h2.415V27.035Z" transform="translate(0 -24.175)"></path>
                  <path id="Path_1083" data-name="Path 1083" d="M247.357,50.858h12.592v-2H249.772V39.715h9.142v-2h-9.142v-9h10.177v-2H247.357Z" transform="translate(-221.19 -23.883)"></path>
                  <g id="Group_10" data-name="Group 10">
                    <g id="Group_9" data-name="Group 9" clip-path="url(#clip-path)">
                      <path id="Path_1084" data-name="Path 1084" d="M735.674,43.622a5.45,5.45,0,0,1-1.432,4.105,6.493,6.493,0,0,1-8,0,5.448,5.448,0,0,1-1.432-4.105V28.339h-3.933V43.553a9.367,9.367,0,0,0,1.242,4.968,7.727,7.727,0,0,0,3.364,3.036,10.9,10.9,0,0,0,4.709,1,11.014,11.014,0,0,0,4.726-1,7.922,7.922,0,0,0,3.415-3.036,9.173,9.173,0,0,0,1.276-4.968V28.339h-3.933Z" transform="translate(-644.615 -25.341)"></path>
                      <path id="Path_1085" data-name="Path 1085" d="M989,39.256a6.466,6.466,0,0,0-2.553-2.018,29.6,29.6,0,0,0-3.881-1.311,26.453,26.453,0,0,1-2.829-.9,4.751,4.751,0,0,1-1.708-1.121,2.52,2.52,0,0,1-.673-1.811,3.005,3.005,0,0,1,1.069-2.484,4.26,4.26,0,0,1,2.76-.862,4.591,4.591,0,0,1,3,.931,3.15,3.15,0,0,1,1.242,2.242h4.347a6.43,6.43,0,0,0-2.467-4.778A8.99,8.99,0,0,0,981.6,25.4a10.529,10.529,0,0,0-4.312.828,6.612,6.612,0,0,0-2.9,2.38,6.377,6.377,0,0,0-1.035,3.622,5.732,5.732,0,0,0,1.035,3.588,6.3,6.3,0,0,0,2.5,1.984,27.237,27.237,0,0,0,3.812,1.259,26.6,26.6,0,0,1,2.915.9,4.74,4.74,0,0,1,1.76,1.173,2.772,2.772,0,0,1,.707,1.966,3.2,3.2,0,0,1-1.138,2.536,4.7,4.7,0,0,1-3.174.983,4.34,4.34,0,0,1-3.053-1,3.8,3.8,0,0,1-1.225-2.553h-4.209a6.087,6.087,0,0,0,1.1,3.622,7.13,7.13,0,0,0,3.036,2.4,10.732,10.732,0,0,0,4.347.845,9.443,9.443,0,0,0,4.433-.983,7.092,7.092,0,0,0,2.863-2.6,6.543,6.543,0,0,0,.983-3.45A5.8,5.8,0,0,0,989,39.256" transform="translate(-870.326 -22.717)"></path>
                      <path id="Path_1086" data-name="Path 1086" d="M507.6,0a2.684,2.684,0,0,0-1.59.519h0a12.352,12.352,0,0,1-5.37,1.743h-9.145a.431.431,0,1,0,0,.862h9.144a12.452,12.452,0,0,1,5.3,1.7A2.7,2.7,0,1,0,507.6,0" transform="translate(-439.113 0)"></path>
                      <path id="Path_1087" data-name="Path 1087" d="M529.256,123.912a1.949,1.949,0,1,0-1.948,1.949,1.948,1.948,0,0,0,1.948-1.949" transform="translate(-469.783 -109.061)"></path>
                      <path id="Path_1088" data-name="Path 1088" d="M594.677,184.456a1.472,1.472,0,1,0,1.472,1.472,1.472,1.472,0,0,0-1.472-1.472" transform="translate(-530.452 -164.943)"></path>
                      <path id="Path_1089" data-name="Path 1089" d="M468.776,73.045a1.472,1.472,0,1,0-1.472-1.472,1.472,1.472,0,0,0,1.472,1.472" transform="translate(-417.87 -62.685)"></path>
                      <path id="Path_1090" data-name="Path 1090" d="M417.784,14.26a1.472,1.472,0,1,0-1.472-1.472,1.472,1.472,0,0,0,1.472,1.472" transform="translate(-372.272 -10.119)"></path>
                      <path id="Path_1091" data-name="Path 1091" d="M645.694,242.542a1.472,1.472,0,1,0,1.472,1.472,1.472,1.472,0,0,0-1.472-1.472" transform="translate(-576.072 -216.884)"></path>
                      <path id="Path_1092" data-name="Path 1092" d="M524.684,62.736a2.22,2.22,0,0,0-1.315.429h0a10.219,10.219,0,0,1-4.442,1.442h-2.793a.357.357,0,0,0,0,.713h2.793a10.3,10.3,0,0,1,4.385,1.4,2.231,2.231,0,1,0,1.373-3.989" transform="translate(-461.214 -56.099)"></path>
                      <path id="Path_1093" data-name="Path 1093" d="M433.712,233.346h-9.145a12.451,12.451,0,0,1-5.3-1.7,2.7,2.7,0,1,0-.07,4.3h0a12.355,12.355,0,0,1,5.371-1.743h9.144a.431.431,0,0,0,0-.862" transform="translate(-371.018 -206.632)"></path>
                      <path id="Path_1094" data-name="Path 1094" d="M468.943,181.613a2.221,2.221,0,0,0,1.315-.429h0a10.218,10.218,0,0,1,4.442-1.442h2.793a.357.357,0,1,0,0-.713H474.7a10.3,10.3,0,0,1-4.385-1.4,2.231,2.231,0,1,0-1.373,3.989" transform="translate(-417.34 -158.411)"></path>
                      <path id="Path_1095" data-name="Path 1095" d="M247.912,341.91v2.07h2.1v.46h-2.1v2.1h2.34V347h-2.9V341.45h2.9v.46Z" transform="translate(-221.19 -305.329)"></path>
                      <path id="Path_1096" data-name="Path 1096" d="M313.028,342.293a2.592,2.592,0,0,1,.976-1.007,2.689,2.689,0,0,1,1.38-.361,2.808,2.808,0,0,1,1.591.44,2.5,2.5,0,0,1,.964,1.242h-.651a1.907,1.907,0,0,0-.726-.88,2.3,2.3,0,0,0-2.277-.032,1.982,1.982,0,0,0-.765.821,2.9,2.9,0,0,0,0,2.479,1.988,1.988,0,0,0,.765.817,2.314,2.314,0,0,0,2.277-.028,1.889,1.889,0,0,0,.726-.869h.651a2.475,2.475,0,0,1-.968,1.229,2.831,2.831,0,0,1-1.587.436,2.688,2.688,0,0,1-1.38-.361,2.6,2.6,0,0,1-.976-1,3.17,3.17,0,0,1,0-2.923" transform="translate(-279.595 -304.86)"></path>
                      <path id="Path_1097" data-name="Path 1097" d="M401.833,346.228a2.6,2.6,0,0,1-.988-1.007,3.147,3.147,0,0,1,0-2.927,2.6,2.6,0,0,1,.988-1.008,2.9,2.9,0,0,1,2.8,0,2.578,2.578,0,0,1,.984,1.008,3.18,3.18,0,0,1,0,2.927,2.576,2.576,0,0,1-.984,1.007,2.9,2.9,0,0,1-2.8,0m2.507-.409a2.027,2.027,0,0,0,.777-.821,2.833,2.833,0,0,0,0-2.479,2.034,2.034,0,0,0-.777-.817,2.3,2.3,0,0,0-2.221,0,2.033,2.033,0,0,0-.777.817,2.832,2.832,0,0,0,0,2.479,2.026,2.026,0,0,0,.777.821,2.3,2.3,0,0,0,2.221,0" transform="translate(-358.118 -304.86)"></path>
                      <path id="Path_1098" data-name="Path 1098" d="M491.077,346.4a1.578,1.578,0,0,1-.655-.531,1.4,1.4,0,0,1-.254-.762h.587a1.116,1.116,0,0,0,.357.71,1.287,1.287,0,0,0,.928.305,1.3,1.3,0,0,0,.893-.29.935.935,0,0,0,.329-.734.867.867,0,0,0-.182-.575,1.116,1.116,0,0,0-.452-.325,7.045,7.045,0,0,0-.746-.234,6.489,6.489,0,0,1-.881-.293,1.4,1.4,0,0,1-.555-.444,1.314,1.314,0,0,1-.23-.817,1.36,1.36,0,0,1,.222-.766,1.487,1.487,0,0,1,.627-.528,2.155,2.155,0,0,1,.928-.19,1.932,1.932,0,0,1,1.242.377,1.416,1.416,0,0,1,.543.972h-.6a1,1,0,0,0-.373-.607,1.475,1.475,0,0,0-1.69,0,.879.879,0,0,0-.333.726.837.837,0,0,0,.183.563,1.163,1.163,0,0,0,.456.325,6.732,6.732,0,0,0,.742.238,6.7,6.7,0,0,1,.872.3,1.422,1.422,0,0,1,.563.448,1.3,1.3,0,0,1,.23.809,1.427,1.427,0,0,1-.206.738,1.505,1.505,0,0,1-.611.563,2.043,2.043,0,0,1-.968.214,2.3,2.3,0,0,1-.964-.19" transform="translate(-438.316 -304.859)"></path>
                      <path id="Path_1099" data-name="Path 1099" d="M564.635,341.525l-1.777,3.387v2.158H562.3v-2.158l-1.793-3.387h.626l1.444,2.88,1.436-2.88Z" transform="translate(-501.215 -305.396)"></path>
                      <path id="Path_1100" data-name="Path 1100" d="M636.256,346.4a1.576,1.576,0,0,1-.654-.531,1.393,1.393,0,0,1-.254-.762h.587a1.115,1.115,0,0,0,.357.71,1.287,1.287,0,0,0,.928.305,1.3,1.3,0,0,0,.892-.29.934.934,0,0,0,.329-.734.867.867,0,0,0-.182-.575,1.119,1.119,0,0,0-.452-.325,7.031,7.031,0,0,0-.746-.234,6.509,6.509,0,0,1-.881-.293,1.4,1.4,0,0,1-.555-.444,1.314,1.314,0,0,1-.23-.817,1.36,1.36,0,0,1,.222-.766,1.487,1.487,0,0,1,.627-.528,2.156,2.156,0,0,1,.928-.19,1.932,1.932,0,0,1,1.242.377,1.417,1.417,0,0,1,.543.972h-.6a1,1,0,0,0-.373-.607,1.475,1.475,0,0,0-1.69,0,.878.878,0,0,0-.333.726.839.839,0,0,0,.182.563,1.164,1.164,0,0,0,.456.325,6.728,6.728,0,0,0,.742.238,6.725,6.725,0,0,1,.873.3,1.423,1.423,0,0,1,.563.448,1.3,1.3,0,0,1,.23.809,1.427,1.427,0,0,1-.206.738,1.5,1.5,0,0,1-.611.563,2.042,2.042,0,0,1-.968.214,2.3,2.3,0,0,1-.964-.19" transform="translate(-568.137 -304.859)"></path>
                      <path id="Path_1101" data-name="Path 1101" d="M709.927,341.525v.46h-1.539v5.085h-.556v-5.085h-1.547v-.46Z" transform="translate(-631.571 -305.396)"></path>
                      <path id="Path_1102" data-name="Path 1102" d="M779.579,341.91v2.07h2.1v.46h-2.1v2.1h2.34V347h-2.9V341.45h2.9v.46Z" transform="translate(-696.614 -305.329)"></path>
                      <path id="Path_1103" data-name="Path 1103" d="M852.157,342.2v5.474H851.6V343.3l-1.952,4.371h-.4l-1.951-4.355v4.355h-.555V342.2h.587l2.118,4.744,2.118-4.744Z" transform="translate(-757.165 -306)"></path>
                    </g>
                  </g>
                </svg>