<svg xmlns="http://www.w3.org/2000/svg" xmlns:xlink="http://www.w3.org/1999/xlink" width="160.239" height="34.271" viewBox="0 0 160.239 34.271">
  <defs>
    <clipPath id="clip-path">
      <rect id="Rectangle_23" data-name="Rectangle 23" width="160.239" height="34.271" fill="none"/>
    </clipPath>
  </defs>
  <g id="Group_13" data-name="Group 13" transform="translate(0 -0.552)">
    <g id="Group_12" data-name="Group 12" transform="translate(0 0.552)" clip-path="url(#clip-path)">
      <path id="Path_1104" data-name="Path 1104" d="M79.611,9.919a7.7,7.7,0,0,0-5.471,2.212,7.8,7.8,0,0,0-2.212,5.47,7.882,7.882,0,0,0,2.153,5.529A7.519,7.519,0,0,0,79.553,25.4a7.7,7.7,0,0,0,5.47-2.211,7.8,7.8,0,0,0,2.212-5.471,7.88,7.88,0,0,0-2.153-5.528,7.964,7.964,0,0,0-5.47-2.27m4.015,8.613a3.332,3.332,0,0,1-.233.815c-.116.233-.233.524-.349.756a2.6,2.6,0,0,1-.465.64c-.175.174-.408.349-.582.524a3.905,3.905,0,0,1-.7.349,3.331,3.331,0,0,1-.815.233,4.426,4.426,0,0,1-.873.058,2.266,2.266,0,0,1-.873-.116,3.348,3.348,0,0,1-.815-.233l-.7-.349a2.5,2.5,0,0,1-.582-.524,2.582,2.582,0,0,1-.466-.64,3,3,0,0,1-.349-.756,5.908,5.908,0,0,1-.233-.815,4.4,4.4,0,0,1-.058-.873,2.265,2.265,0,0,1,.116-.873,3.331,3.331,0,0,1,.233-.815c.116-.233.233-.524.349-.756a2.591,2.591,0,0,1,.465-.64c.175-.174.408-.349.582-.524a3.908,3.908,0,0,1,.7-.349,3.348,3.348,0,0,1,.815-.233,4.4,4.4,0,0,1,.873-.058,2.26,2.26,0,0,1,.873.117,3.349,3.349,0,0,1,.815.233l.7.349a2.488,2.488,0,0,1,.582.524,2.58,2.58,0,0,1,.466.64,3.026,3.026,0,0,1,.349.757,5.877,5.877,0,0,1,.233.815,4.394,4.394,0,0,1,.058.873,4.516,4.516,0,0,1-.116.873M50.921,3.983A18.064,18.064,0,0,0,44.054.608,22.46,22.46,0,0,0,39.689.026c-1.106-.058-2.212,0-3.259,0h-18.8a22.46,22.46,0,0,0-4.365.582A17.21,17.21,0,0,0,6.4,30.753a18.053,18.053,0,0,0,6.867,3.375,22.43,22.43,0,0,0,4.365.582c1.106.058,2.212,0,3.259,0h18.8a22.43,22.43,0,0,0,4.365-.582A17.21,17.21,0,0,0,50.921,3.983ZM43.3,22.082a5.8,5.8,0,0,1-2.5.989,21.025,21.025,0,0,1-2.735.117H19.2a21.476,21.476,0,0,1-2.735-.117,5.533,5.533,0,0,1-2.5-.989,5.656,5.656,0,0,1,0-9.311,5.8,5.8,0,0,1,2.5-.99,21.094,21.094,0,0,1,2.735-.116H38.059a21.547,21.547,0,0,1,2.735.116,5.529,5.529,0,0,1,2.5.99,5.685,5.685,0,0,1,2.444,4.655A5.4,5.4,0,0,1,43.3,22.082m98.582-4.889v1.222a4.551,4.551,0,0,1-.116.815,3.78,3.78,0,0,1-.524,1.338,3.719,3.719,0,0,1-2.968,1.571,3.217,3.217,0,0,1-2.91-1.513,5.747,5.747,0,0,1-.524-1.4,11.345,11.345,0,0,1-.175-1.978V10.269h-3.492v7.74a9.413,9.413,0,0,0,.058,1.28,10.119,10.119,0,0,0,.7,2.91,5.95,5.95,0,0,0,4.714,3.2,8.441,8.441,0,0,0,2.968-.233,5.9,5.9,0,0,0,2.56-1.455,12.229,12.229,0,0,0,.117,1.455h3.084V10.385H141.88Zm18.855,2.037a4.748,4.748,0,0,0-3.085-2.793,16.6,16.6,0,0,0-2.269-.64,4.914,4.914,0,0,1-.989-.233,5.115,5.115,0,0,1-.873-.291,1.927,1.927,0,0,1-.815-.582.915.915,0,0,1-.233-.756,1.44,1.44,0,0,1,.465-.815,5.113,5.113,0,0,1,.582-.349,5.968,5.968,0,0,1,.815-.233,5.387,5.387,0,0,1,1.687.117,7.153,7.153,0,0,1,2.386.989c.582-.815,1.164-1.571,1.746-2.386a8.828,8.828,0,0,0-3.957-1.63,8.208,8.208,0,0,0-2.386,0,9.123,9.123,0,0,0-1.8.466,5.467,5.467,0,0,0-1.979,1.455,3.4,3.4,0,0,0-.815,1.571,3.589,3.589,0,0,0,0,2.212,3.729,3.729,0,0,0,1.106,1.688,9.006,9.006,0,0,0,3.957,1.571,12.171,12.171,0,0,1,1.4.349,4.489,4.489,0,0,1,1.106.465,2.408,2.408,0,0,1,.7.64,1.131,1.131,0,0,1,.174.757,1.207,1.207,0,0,1-.291.7,1.589,1.589,0,0,1-.7.524,3.449,3.449,0,0,1-1.106.291,7.082,7.082,0,0,1-1.571,0,8.889,8.889,0,0,1-1.688-.408,8.754,8.754,0,0,1-2.269-1.28c-.64.815-1.222,1.688-1.862,2.5a11.334,11.334,0,0,0,3.783,2.037,8.164,8.164,0,0,0,2.386.349,10.623,10.623,0,0,0,1.92-.117,6.529,6.529,0,0,0,2.328-.815,4.483,4.483,0,0,0,1.338-1.222,4.142,4.142,0,0,0,.873-2.153A2.882,2.882,0,0,0,160.735,19.23ZM98.583,21.791a4.587,4.587,0,0,1-2.5-.117,4.266,4.266,0,0,1-2.037-1.455,4.877,4.877,0,0,1-.815-2.386,4.54,4.54,0,0,1,.524-2.444,3.406,3.406,0,0,1,1.8-1.688,7.026,7.026,0,0,1,1.047-.291,3.76,3.76,0,0,1,1.4,0,5.92,5.92,0,0,1,2.386.873c.7-.873,1.4-1.8,2.153-2.677a7.848,7.848,0,0,0-4.132-1.688,8.275,8.275,0,0,0-4.423.7A7.261,7.261,0,0,0,90.726,13.7a8.831,8.831,0,0,0-.931,4.365,7.867,7.867,0,0,0,1.4,4.248A7.227,7.227,0,0,0,94.8,24.992a8.4,8.4,0,0,0,4.481.233,8.291,8.291,0,0,0,3.957-2.153c-.815-.815-1.571-1.688-2.386-2.5A4.844,4.844,0,0,1,98.583,21.791ZM123.665,2.354h3.724V24.992h-3.724ZM116.1,17.194v1.222a4.555,4.555,0,0,1-.117.815,3.773,3.773,0,0,1-.524,1.338,3.718,3.718,0,0,1-2.968,1.571,3.218,3.218,0,0,1-2.91-1.513,5.763,5.763,0,0,1-.524-1.4,11.384,11.384,0,0,1-.174-1.978V10.269h-3.492v7.74a9.415,9.415,0,0,0,.058,1.28,10.119,10.119,0,0,0,.7,2.91,5.951,5.951,0,0,0,4.714,3.2,8.438,8.438,0,0,0,2.968-.233,5.9,5.9,0,0,0,2.561-1.455,12.311,12.311,0,0,0,.116,1.455h2.968V10.385h-3.433Z" transform="translate(0 -0.465)" fill="#fff"/>
    </g>
  </g>
</svg>
